<?xml version="1.0" encoding="utf-8"?>
<!-- Generator: Adobe Illustrator 16.0.0, SVG Export Plug-In . SVG Version: 6.00 Build 0)  -->
<!DOCTYPE svg PUBLIC "-//W3C//DTD SVG 1.1//EN" "http://www.w3.org/Graphics/SVG/1.1/DTD/svg11.dtd">
<svg version="1.1" id="Layer_1" xmlns="http://www.w3.org/2000/svg" xmlns:xlink="http://www.w3.org/1999/xlink" x="0px" y="0px"
	 width="48.607px" height="160.461px" viewBox="0 0 48.607 160.461" enable-background="new 0 0 48.607 160.461"
	 xml:space="preserve">
<g>
	<path fill="#FFBC11" d="M48.479,160.398c-0.625,0-1.075,0-1.862,0c0-13.323,0-26.551,0-40.973
		c-8.662,14.483-17.282,27.582-25.391,41.877c-5.875-13.097-12.183-25.091-19.353-37.764c-0.105,2.046-0.21,3.134-0.211,4.223
		c-0.012,10.32-0.015,20.641,0.003,30.961c0.002,1.088,0.035,2.075-1.666,1.737c-0.103-0.378-0.329-0.819-0.33-1.265
		c-0.019-13.149,0.032-26.299-0.056-39.448c-0.017-2.588,0.784-4.177,3.224-5.302c4.436-2.043,8.784-4.022,13.849-4.024
		c2.171-0.001,4.258-1.278,6.579-0.937c4.876,0.716,10.015,0.638,14.572,2.232c3.818,1.338,8.017,2.87,10.642,6.061
		C48.479,132.15,48.479,146.252,48.479,160.398z"/>
	<path fill="#FFBC11" d="M22.755,108.5c0-6.803,0-13.251,0-20c2.047,0,4.229-0.537,5.912,0.146c1.759,0.717,3.441,0.567,5.132,0.912
		c1.794,0.363,3.515,1.139,5.227,1.832c1.569,0.635,3.161,1.272,4.607,2.135c3.037,1.811,5.142,4.229,5.049,8.1
		c-0.108,4.484-0.025,8.973-0.025,13.561c-2.629-1.322-5.092-2.738-7.693-3.822c-2.699-1.122-5.474-2.318-8.325-2.756
		C29.543,108.134,26.321,108.5,22.755,108.5z"/>
	<path fill="#FFBC11" d="M48.655,28.331c-1.394-1.552-2.234-2.346-2.906-3.263c-2.021-2.76-5.149-3.898-8.129-4.435
		c-4.826-0.869-9.516-2.89-14.771-1.973c0-5.836,0-11.399,0-17.177c4.461,0.127,8.86-0.514,13.09,1.031
		c4.472,1.634,8.939,3.322,11.765,7.542c0.346,0.516,0.902,1.064,0.91,1.604C48.683,16.926,48.655,22.194,48.655,28.331z"/>
	<path fill="#FFBC11" d="M19.479,108.672c-4.486-1.189-8.336,0.826-12.233,1.965c-2.91,0.85-5.458,2.938-8.371,4.592
		c0.252,0.125,0.11,0.09,0.023,0.002c-0.105-0.106-0.233-0.262-0.233-0.396c-0.011-5.497-0.01-10.994-0.01-16.884
		c1.46-1.357,2.95-3.172,4.826-4.395c3.7-2.412,7.728-4.072,12.299-4.104c1.164-0.009,2.324-0.606,3.699-0.994
		C19.479,95.091,19.479,101.541,19.479,108.672z"/>
	<path fill="#FFBC11" d="M22.745,35.098c0-4.694,0-9.471,0-14.35c5.56-1.005,10.854,0.368,16.021,1.842
		c4.088,1.166,7.116,4.228,9.728,7.33c0,4.856,0,9.635,0,14.988c-2.465-2.699-4.791-4.709-7.782-5.922
		c-3.063-1.241-6.135-2.194-9.44-2.521C28.583,36.199,25.927,35.621,22.745,35.098z"/>
	<path fill="#FFBC11" d="M22.827,37.511c9.883-0.176,19.044,1.04,25.745,9.564c0,4.535,0,9.312,0,14.818
		c-2.575-2.465-4.749-4.544-7.659-5.831c-2.758-1.221-5.57-1.926-8.43-2.513c-3.115-0.639-6.312-0.885-9.656-1.327
		C22.827,47.573,22.827,42.797,22.827,37.511z"/>
	<path fill="#FFBC11" d="M48.655,78.951c-5.392-5.82-11.628-7.987-18.666-8.494c-2.336-0.169-4.637-0.845-7.168-1.33
		c0-4.564,0-9.343,0-14.498c2.807,0.118,5.747-0.882,8.725,0.797c1.158,0.652,2.929,0.172,4.16,0.754
		c1.134,0.535,2.82-0.376,3.449,1.32c3.539-0.148,5.406,2.473,7.578,4.582c1.317,1.279,1.947,2.834,1.932,4.689
		C48.633,70.572,48.655,74.373,48.655,78.951z"/>
	<path fill="#FFBC11" d="M48.655,96.245c-3.885-5.304-9.093-6.619-14.086-8.339c-0.289-0.1-0.551-0.383-0.829-0.389
		c-1.828-0.035-3.677,0.146-5.48-0.065c-1.69-0.2-3.336-0.8-5.481-1.347c-0.353-1.979-0.061-4.433-0.11-6.854
		c-0.053-2.472-0.012-4.945-0.012-7.498c6.499-1.155,12.395,1.038,18.179,2.913c2.561,0.829,4.63,3.366,6.721,5.343
		c0.692,0.655,1.023,1.974,1.054,3.001C48.724,87.121,48.655,91.234,48.655,96.245z"/>
	<path fill="#FFBC11" d="M-1.345,26.656c0-5.021-0.021-9.651,0.009-14.281c0.016-2.261,1.292-3.941,2.926-5.264
		C4.142,5.047,7.12,3.549,10.195,2.6c2.858-0.882,5.974-0.928,9.242-1.379c0,5.771,0,11.212,0,16.85
		c-1.432,1.29-3.507,1.126-5.509,1.533c-4.081,0.829-8.333,1.479-11.568,4.634C1.424,25.149,0.142,25.705-1.345,26.656z"/>
	<path fill="#FFBC11" d="M19.507,54.554c0,5.258,0,10.371,0,15.676c-7.617,0.432-14.919,2.084-20.848,8.826
		c-0.001-2.969-0.003-5.399-0.004-7.831c0-2.33,0-4.659,0-6.782C3.568,56.74,11.386,55.554,19.507,54.554z"/>
	<path fill="#FFBC11" d="M-1.293,61.5c0-5.035,0-9.675,0-14.226c4.974-7.365,12.632-8.873,20.948-9.857
		c0,4.582,0.037,8.867-0.016,13.151c-0.026,2.157-0.749,2.931-2.917,2.904c-4.207-0.05-8.036,1.351-11.639,3.212
		C2.854,57.838,1.004,59.729-1.293,61.5z"/>
	<path fill="#FFBC11" d="M-1.299,95.876c0-5.431,0-10.076,0-15.281c0.433-0.354,1.324-0.874,1.942-1.621
		c3.594-4.345,8.649-5.488,13.802-6.492c0.896-0.175,1.729-0.673,2.627-0.867c0.753-0.162,1.555-0.099,2.464-0.142
		c0,5.399,0,10.511,0,15.863C11.736,87.423,4.63,89.503-1.299,95.876z"/>
	<path fill="#FFBC11" d="M19.655,19.97c0,4.993,0.034,9.135-0.013,13.275c-0.028,2.455-0.735,3.258-3.107,3.226
		c-3.714-0.049-7.053,1.508-10.575,2.263c-1.101,0.236-6.191,4.579-7.305,6.101c0-4.925-0.006-9.377,0.007-13.828
		c0.001-0.562,2.313-4.077,2.952-4.501c3.937-2.617,7.931-4.992,12.916-5.07C16.029,21.411,17.515,20.609,19.655,19.97z"/>
	<path fill="#FFBC11" stroke="#FFFFFF" stroke-miterlimit="10" d="M46.155,121c-0.834,3-1.666,6-2.5,9"/>
	<path fill="#FFBC11" stroke="#FFFFFF" stroke-miterlimit="10" d="M50.655,28.5c-1.231-0.106-2.518,0.36-3.523-0.982
		c-4.75-6.34-12.12-6.802-18.993-7.908c-5.285-0.851-10.688,0.09-15.977,0.931c-3.197,0.508-9.671,3.653-12.376,6.58
		c-1.208,1.308-2.156,0.47-3.13,0.88"/>
	<path fill="#FFBC11" stroke="#FFFFFF" stroke-miterlimit="10" d="M50.655,45.5c-1-0.167-2.439,0.034-2.932-0.557
		c-5.263-6.307-12.697-7.455-20.078-8.362c-6.231-0.767-12.428,0.438-18.479,1.962c-3.25,0.819-6.445,2.415-8.365,5.062
		c-1.425,1.966-2.87,1.848-4.646,1.895"/>
	<path fill="#FFBC11" stroke="#FFFFFF" stroke-miterlimit="10" d="M50.155,63c-1.629,0.143-2.604-0.953-3.482-2.015
		c-3.393-4.1-8.288-5.252-13.032-6.421c-7.312-1.803-14.677-1.249-21.988,0.419C6.9,56.068,3.818,57.837-0.845,62.5c-1,0-2,0-3,0"/>
	<path fill="#FFBC11" stroke="#FFFFFF" stroke-miterlimit="10" d="M50.655,116.5c-1-0.167-2.217-0.025-2.965-0.551
		c-4.267-3-8.848-5.211-14.039-5.926c-3.315-0.457-6.664-0.676-9.994-1.039c-0.512-0.057-1.002-0.317-1.502-0.484"/>
	<path fill="#FFBC11" stroke="#FFFFFF" stroke-miterlimit="10" d="M-3.345,96.5c1.231-0.105,2.423,0.25,3.541-0.962
		c4.404-4.772,10.196-6.155,16.43-7.21c5.638-0.953,11.089-0.623,16.511,0.281c4.734,0.791,9.398,2.34,13.021,5.889
		c1.268,1.243,2.37,2.799,4.498,2.502"/>
	<path fill="#FFBC11" stroke="#FFFFFF" stroke-miterlimit="10" d="M-3.345,79.5c1.231-0.106,2.467,0.307,3.534-0.972
		c4.001-4.798,9.652-5.983,15.455-7.089c7.694-1.467,15.127-0.932,22.521,1.529c3.229,1.075,6.172,2.488,8.49,5.031
		c1.076,1.182,2.211,2.246,4,2"/>
	<path fill="#FFBC11" stroke="#FFFFFF" stroke-miterlimit="10" d="M2.155,125c0.833,3.333,1.667,6.667,2.5,10"/>
	<path fill="#FFBC11" stroke="#FFFFFF" stroke-miterlimit="10" d="M21.155,0c0,22.167-0.009,44.333,0.021,66.5
		c0.003,1.334,0.312,2.667,0.479,4"/>
	<path fill="#FFBC11" stroke="#FFFFFF" stroke-miterlimit="10" d="M20.155,108.5c-1,0.333-1.996,0.941-3,0.956
		c-7.043,0.097-12.972,3.021-18.5,7.044"/>
	<path fill="#FFBC11" stroke="#FFFFFF" stroke-miterlimit="10" d="M21.155,88.5c0,6.5,0,13,0,19.5"/>
	<path fill="#FFBC11" stroke="#FFFFFF" stroke-miterlimit="10" d="M21.155,71.5c0,4.667-0.021,9.334,0.022,14
		c0.006,0.668,0.311,1.333,0.478,2"/>
</g>
</svg>
