<?xml version="1.0" encoding="utf-8"?>
<!-- Generator: Adobe Illustrator 16.0.0, SVG Export Plug-In . SVG Version: 6.00 Build 0)  -->
<!DOCTYPE svg PUBLIC "-//W3C//DTD SVG 1.1//EN" "http://www.w3.org/Graphics/SVG/1.1/DTD/svg11.dtd">
<svg version="1.1" id="Layer_1" xmlns="http://www.w3.org/2000/svg" xmlns:xlink="http://www.w3.org/1999/xlink" x="0px" y="0px"
	 width="48.607px" height="160.461px" viewBox="0 0 48.607 160.461" enable-background="new 0 0 48.607 160.461"
	 xml:space="preserve">
<g>
	<path fill-rule="evenodd" clip-rule="evenodd" d="M48.479,160.398c-0.625,0-1.075,0-1.862,0c0-13.323,0-26.551,0-40.972
		c-8.662,14.483-17.282,27.582-25.391,41.877c-5.875-13.097-12.182-25.091-19.352-37.764c-0.106,2.046-0.21,3.134-0.211,4.223
		c-0.012,10.32-0.015,20.641,0.003,30.96c0.002,1.089,0.035,2.076-1.666,1.738c-0.103-0.378-0.329-0.82-0.33-1.264
		c-0.019-13.15,0.032-26.3-0.056-39.449c-0.017-2.588,0.784-4.177,3.224-5.301c4.435-2.044,8.784-4.023,13.848-4.025
		c2.171-0.001,4.258-1.278,6.579-0.937c4.876,0.716,10.015,0.638,14.573,2.233c3.818,1.338,8.016,2.87,10.641,6.061
		C48.479,132.151,48.479,146.252,48.479,160.398z"/>
	<path fill-rule="evenodd" clip-rule="evenodd" d="M22.755,108.5c0-6.802,0-13.251,0-20c2.047,0,4.229-0.537,5.912,0.147
		c1.759,0.716,3.441,0.567,5.132,0.911c1.794,0.364,3.514,1.14,5.226,1.833c1.569,0.635,3.161,1.272,4.608,2.135
		c3.037,1.81,5.141,4.228,5.048,8.099c-0.108,4.484-0.025,8.973-0.025,13.561c-2.629-1.323-5.092-2.739-7.693-3.822
		c-2.7-1.123-5.474-2.319-8.326-2.756C29.543,108.134,26.321,108.5,22.755,108.5z"/>
	<path fill-rule="evenodd" clip-rule="evenodd" d="M48.655,28.331c-1.394-1.552-2.234-2.346-2.906-3.263
		c-2.021-2.76-5.15-3.898-8.129-4.435c-4.826-0.869-9.516-2.89-14.771-1.973c0-5.836,0-11.399,0-17.177
		C27.31,1.61,31.71,0.969,35.939,2.514c4.472,1.634,8.94,3.322,11.765,7.542c0.346,0.516,0.902,1.064,0.91,1.604
		C48.683,16.926,48.655,22.194,48.655,28.331z"/>
	<path fill-rule="evenodd" clip-rule="evenodd" d="M19.479,108.672c-4.486-1.189-8.336,0.826-12.233,1.964
		c-2.91,0.85-5.458,2.939-8.371,4.593c0.252,0.124,0.11,0.09,0.023,0.002c-0.105-0.107-0.233-0.262-0.233-0.396
		c-0.011-5.497-0.01-10.994-0.01-16.884c1.46-1.357,2.95-3.172,4.826-4.395c3.7-2.411,7.728-4.071,12.299-4.104
		c1.164-0.009,2.324-0.607,3.699-0.994C19.479,95.091,19.479,101.541,19.479,108.672z"/>
	<path fill-rule="evenodd" clip-rule="evenodd" d="M22.745,35.098c0-4.694,0-9.471,0-14.35c5.559-1.005,10.854,0.368,16.02,1.842
		c4.088,1.166,7.117,4.228,9.728,7.33c0,4.856,0,9.635,0,14.988c-2.465-2.699-4.791-4.709-7.782-5.922
		c-3.064-1.241-6.135-2.194-9.441-2.521C28.583,36.199,25.927,35.621,22.745,35.098z"/>
	<path fill-rule="evenodd" clip-rule="evenodd" d="M22.827,37.511c9.883-0.176,19.044,1.04,25.745,9.564c0,4.535,0,9.312,0,14.818
		c-2.575-2.465-4.749-4.544-7.659-5.831c-2.758-1.221-5.57-1.926-8.43-2.513c-3.115-0.639-6.311-0.885-9.656-1.327
		C22.827,47.573,22.827,42.797,22.827,37.511z"/>
	<path fill-rule="evenodd" clip-rule="evenodd" d="M48.655,78.951c-5.392-5.82-11.628-7.987-18.666-8.494
		c-2.336-0.169-4.637-0.845-7.168-1.33c0-4.564,0-9.343,0-14.498c2.807,0.118,5.747-0.882,8.725,0.797
		c1.158,0.652,2.928,0.172,4.16,0.754c1.134,0.535,2.82-0.376,3.449,1.32c3.539-0.148,5.406,2.473,7.578,4.582
		c1.318,1.279,1.947,2.834,1.932,4.689C48.633,70.572,48.655,74.373,48.655,78.951z"/>
	<path fill-rule="evenodd" clip-rule="evenodd" d="M48.655,96.245c-3.885-5.303-9.093-6.619-14.086-8.338
		c-0.289-0.1-0.551-0.384-0.829-0.389c-1.828-0.036-3.677,0.146-5.48-0.066c-1.691-0.2-3.336-0.8-5.482-1.346
		c-0.352-1.98-0.06-4.433-0.11-6.854c-0.053-2.472-0.012-4.945-0.012-7.498c6.499-1.155,12.395,1.038,18.179,2.913
		c2.56,0.829,4.63,3.366,6.72,5.343c0.693,0.655,1.024,1.974,1.054,3.001C48.724,87.121,48.655,91.235,48.655,96.245z"/>
	<path fill-rule="evenodd" clip-rule="evenodd" d="M-1.345,26.656c0-5.021-0.021-9.651,0.009-14.281
		c0.015-2.261,1.292-3.941,2.926-5.264C4.142,5.047,7.12,3.549,10.195,2.6c2.858-0.882,5.974-0.928,9.242-1.379
		c0,5.771,0,11.212,0,16.85c-1.431,1.29-3.507,1.126-5.509,1.533c-4.081,0.829-8.333,1.479-11.568,4.634
		C1.424,25.149,0.142,25.705-1.345,26.656z"/>
	<path fill-rule="evenodd" clip-rule="evenodd" d="M19.507,54.554c0,5.258,0,10.371,0,15.676
		c-7.618,0.432-14.919,2.084-20.848,8.826c-0.001-2.969-0.003-5.399-0.004-7.831c0-2.33,0-4.659,0-6.782
		C3.568,56.74,11.386,55.554,19.507,54.554z"/>
	<path fill-rule="evenodd" clip-rule="evenodd" d="M-1.293,61.5c0-5.035,0-9.675,0-14.226c4.973-7.365,12.632-8.873,20.948-9.857
		c0,4.582,0.037,8.867-0.016,13.151c-0.026,2.157-0.749,2.931-2.917,2.904c-4.207-0.05-8.036,1.351-11.638,3.212
		C2.854,57.838,1.004,59.729-1.293,61.5z"/>
	<path fill-rule="evenodd" clip-rule="evenodd" d="M-1.299,95.876c0-5.43,0-10.076,0-15.281c0.433-0.354,1.324-0.874,1.942-1.621
		c3.594-4.345,8.65-5.488,13.802-6.492c0.897-0.175,1.73-0.673,2.627-0.867c0.753-0.162,1.555-0.099,2.464-0.142
		c0,5.399,0,10.512,0,15.863C11.736,87.423,4.63,89.503-1.299,95.876z"/>
	<path fill-rule="evenodd" clip-rule="evenodd" d="M19.655,19.97c0,4.993,0.034,9.135-0.013,13.275
		c-0.028,2.455-0.735,3.258-3.107,3.226c-3.714-0.049-7.053,1.508-10.575,2.263c-1.101,0.236-6.192,4.579-7.305,6.101
		c0-4.925-0.006-9.377,0.007-13.828c0.001-0.562,2.313-4.077,2.952-4.501c3.937-2.617,7.931-4.992,12.916-5.07
		C16.029,21.411,17.515,20.609,19.655,19.97z"/>
	<path fill-rule="evenodd" clip-rule="evenodd" stroke="#FFFFFF" stroke-miterlimit="10" d="M46.155,121c-0.834,3-1.666,6-2.5,9"/>
	<path fill-rule="evenodd" clip-rule="evenodd" stroke="#FFFFFF" stroke-miterlimit="10" d="M50.655,28.5
		c-1.231-0.106-2.518,0.36-3.523-0.982c-4.75-6.34-12.121-6.802-18.994-7.908c-5.285-0.851-10.688,0.09-15.976,0.931
		c-3.197,0.508-9.671,3.653-12.376,6.58c-1.208,1.308-2.156,0.47-3.13,0.88"/>
	<path fill-rule="evenodd" clip-rule="evenodd" stroke="#FFFFFF" stroke-miterlimit="10" d="M50.655,45.5
		c-1-0.167-2.439,0.034-2.932-0.557c-5.262-6.307-12.697-7.455-20.078-8.362c-6.231-0.767-12.427,0.438-18.479,1.962
		c-3.25,0.819-6.446,2.415-8.365,5.062c-1.425,1.966-2.871,1.848-4.646,1.895"/>
	<path fill-rule="evenodd" clip-rule="evenodd" stroke="#FFFFFF" stroke-miterlimit="10" d="M50.155,63
		c-1.629,0.143-2.604-0.953-3.482-2.015c-3.393-4.1-8.288-5.252-13.033-6.421c-7.312-1.803-14.676-1.249-21.988,0.419
		C6.9,56.068,3.818,57.837-0.845,62.5c-1,0-2,0-3,0"/>
	<path fill-rule="evenodd" clip-rule="evenodd" stroke="#FFFFFF" stroke-miterlimit="10" d="M50.655,116.5
		c-1-0.167-2.217-0.025-2.965-0.551c-4.266-3-8.847-5.211-14.039-5.926c-3.315-0.457-6.664-0.676-9.994-1.039
		c-0.512-0.056-1.002-0.317-1.502-0.484"/>
	<path fill-rule="evenodd" clip-rule="evenodd" stroke="#FFFFFF" stroke-miterlimit="10" d="M-3.345,96.5
		c1.231-0.106,2.423,0.25,3.541-0.962c4.404-4.772,10.196-6.155,16.43-7.21c5.637-0.953,11.089-0.623,16.51,0.282
		c4.735,0.791,9.399,2.339,13.021,5.888c1.268,1.243,2.37,2.799,4.498,2.502"/>
	<path fill-rule="evenodd" clip-rule="evenodd" stroke="#FFFFFF" stroke-miterlimit="10" d="M-3.345,79.5
		c1.231-0.106,2.467,0.307,3.534-0.972c4.001-4.798,9.653-5.983,15.455-7.089c7.695-1.467,15.127-0.932,22.521,1.529
		c3.229,1.075,6.172,2.488,8.49,5.031c1.076,1.182,2.211,2.246,4,2"/>
	<path fill-rule="evenodd" clip-rule="evenodd" stroke="#FFFFFF" stroke-miterlimit="10" d="M2.155,125
		c0.833,3.333,1.667,6.667,2.5,10"/>
	<path fill-rule="evenodd" clip-rule="evenodd" stroke="#FFFFFF" stroke-miterlimit="10" d="M21.155,0
		c0,22.167-0.009,44.333,0.021,66.5c0.002,1.334,0.312,2.667,0.479,4"/>
	<path fill-rule="evenodd" clip-rule="evenodd" stroke="#FFFFFF" stroke-miterlimit="10" d="M20.155,108.5
		c-1,0.333-1.996,0.942-3,0.956c-7.043,0.097-12.972,3.021-18.5,7.044"/>
	<path fill-rule="evenodd" clip-rule="evenodd" stroke="#FFFFFF" stroke-miterlimit="10" d="M21.155,88.5c0,6.5,0,13,0,19.5"/>
	<path fill-rule="evenodd" clip-rule="evenodd" stroke="#FFFFFF" stroke-miterlimit="10" d="M21.155,71.5
		c0,4.667-0.02,9.334,0.022,14c0.006,0.668,0.311,1.333,0.478,2"/>
</g>
</svg>
